<?xml version="1.0" encoding="utf-8"?>
<!-- Generator: Adobe Illustrator 17.0.0, SVG Export Plug-In . SVG Version: 6.00 Build 0)  -->
<!DOCTYPE svg PUBLIC "-//W3C//DTD SVG 1.0//EN" "http://www.w3.org/TR/2001/REC-SVG-20010904/DTD/svg10.dtd">
<svg version="1.0" id="Layer_1" xmlns="http://www.w3.org/2000/svg" xmlns:xlink="http://www.w3.org/1999/xlink" x="0px" y="0px"
	 width="1920px" height="2600px" viewBox="0 0 1920 2600" style="enable-background:new 0 0 1920 2600;" xml:space="preserve">
<g>
	<linearGradient id="SVGID_1_" gradientUnits="userSpaceOnUse" x1="-292.928" y1="553.1018" x2="1416.0892" y2="553.1018">
		<stop  offset="0" style="stop-color:#E5007C"/>
		<stop  offset="1" style="stop-color:#B03197"/>
	</linearGradient>
	<circle style="fill:url(#SVGID_1_);" cx="561.6" cy="553.1" r="854.5"/>
</g>
<g>
	<path style="fill:#F8BB26;" d="M561.6-424.7c66.3,0,132.6,6.7,197.1,19.9c62.8,12.8,124.5,32,183.5,57
		c57.9,24.5,113.8,54.8,166.1,90.1c51.8,35,100.5,75.1,144.7,119.4c44.2,44.2,84.4,92.9,119.4,144.7
		c35.3,52.3,65.6,108.2,90.2,166.1c25,59,44.1,120.8,57,183.5c13.2,64.4,19.9,130.7,19.9,197.1c0,66.3-6.7,132.6-19.9,197.1
		c-12.8,62.8-32,124.5-57,183.5c-24.5,57.9-54.8,113.8-90.2,166.1c-35,51.8-75.1,100.5-119.4,144.7
		c-44.2,44.2-92.9,84.4-144.7,119.4c-52.3,35.3-108.2,65.6-166.1,90.1c-59,25-120.8,44.1-183.5,57c-64.4,13.2-130.7,19.9-197.1,19.9
		s-132.6-6.7-197.1-19.9c-62.8-12.8-124.5-32-183.5-57c-57.9-24.5-113.8-54.8-166.1-90.1c-51.8-35-100.5-75.2-144.7-119.4
		c-44.2-44.2-84.4-92.9-119.4-144.7c-35.3-52.3-65.6-108.2-90.2-166.1c-25-59-44.1-120.8-57-183.5c-13.2-64.4-19.9-130.7-19.9-197.1
		c0-66.3,6.7-132.6,19.9-197.1c12.8-62.8,32-124.5,57-183.5c24.5-57.9,54.8-113.8,90.2-166.1c35-51.8,75.1-100.5,119.4-144.7
		s92.9-84.4,144.7-119.4C67.2-293,123-323.3,181-347.8c59-25,120.8-44.1,183.5-57C428.9-418,495.2-424.7,561.6-424.7 M561.6-427.7
		c-541.7,0-980.8,439.1-980.8,980.8s439.1,980.8,980.8,980.8s980.8-439.1,980.8-980.8S1103.2-427.7,561.6-427.7L561.6-427.7z"/>
</g>
<g>
	<linearGradient id="SVGID_2_" gradientUnits="userSpaceOnUse" x1="1155.4004" y1="940.059" x2="1929.3147" y2="940.059">
		<stop  offset="0" style="stop-color:#FF6700"/>
		<stop  offset="0.9523" style="stop-color:#F8BB26"/>
	</linearGradient>
	<circle style="fill:url(#SVGID_2_);" cx="1542.4" cy="940.1" r="387"/>
</g>
</svg>
